<?xml version="1.0" encoding="UTF-8" standalone="no"?>
<svg
   xmlns:dc="http://purl.org/dc/elements/1.1/"
   xmlns:cc="http://creativecommons.org/ns#"
   xmlns:rdf="http://www.w3.org/1999/02/22-rdf-syntax-ns#"
   xmlns:svg="http://www.w3.org/2000/svg"
   xmlns="http://www.w3.org/2000/svg"
   xmlns:sodipodi="http://sodipodi.sourceforge.net/DTD/sodipodi-0.dtd"
   xmlns:inkscape="http://www.inkscape.org/namespaces/inkscape"
   enable-background="new 0 0 500 500"
   id="Layer_1"
   version="1.1"
   viewBox="0 0 500 500"
   xml:space="preserve"
   inkscape:version="0.48.4 r9939"
   width="100%"
   height="100%"
   sodipodi:docname="1427366812_phone.svg"><metadata
     id="metadata15"><rdf:RDF><cc:Work
         rdf:about=""><dc:format>image/svg+xml</dc:format><dc:type
           rdf:resource="http://purl.org/dc/dcmitype/StillImage" /><dc:title></dc:title></cc:Work></rdf:RDF></metadata><defs
     id="defs13" /><sodipodi:namedview
     pagecolor="#ffffff"
     bordercolor="#666666"
     borderopacity="1"
     objecttolerance="10"
     gridtolerance="10"
     guidetolerance="10"
     inkscape:pageopacity="0"
     inkscape:pageshadow="2"
     inkscape:window-width="706"
     inkscape:window-height="480"
     id="namedview11"
     showgrid="false"
     inkscape:zoom="0.472"
     inkscape:cx="566.73729"
     inkscape:cy="250"
     inkscape:window-x="0"
     inkscape:window-y="0"
     inkscape:window-maximized="0"
     inkscape:current-layer="Layer_1" /><path
     d="M 167.6875 56.8125 C 159.4875 56.8125 152.6875 63.5125 152.6875 71.8125 L 152.6875 428.1875 C 152.6875 436.3875 159.3875 443.1875 167.6875 443.1875 L 335 443.1875 C 343.3 443.1875 350 436.4875 350 428.1875 L 350 71.8125 C 350 63.6125 343.3 56.8125 335 56.8125 L 167.6875 56.8125 z M 166.90625 96.3125 L 335.59375 96.3125 L 335.59375 390.3125 L 166.90625 390.3125 L 166.90625 96.3125 z M 250.8125 400.3125 C 259.9252 400.3125 267.3125 407.6998 267.3125 416.8125 C 267.3125 425.9252 259.9252 433.3125 250.8125 433.3125 C 241.6998 433.3125 234.3125 425.9252 234.3125 416.8125 C 234.3125 407.6998 241.6998 400.3125 250.8125 400.3125 z "
     id="path3"
     style="fill:#ffffff" /></svg>