<?xml version="1.0" encoding="UTF-8" standalone="no"?>
<!-- Generator: Adobe Illustrator 18.1.0, SVG Export Plug-In . SVG Version: 6.00 Build 0)  -->

<svg
   xmlns:dc="http://purl.org/dc/elements/1.1/"
   xmlns:cc="http://creativecommons.org/ns#"
   xmlns:rdf="http://www.w3.org/1999/02/22-rdf-syntax-ns#"
   xmlns:svg="http://www.w3.org/2000/svg"
   xmlns="http://www.w3.org/2000/svg"
   xmlns:sodipodi="http://sodipodi.sourceforge.net/DTD/sodipodi-0.dtd"
   xmlns:inkscape="http://www.inkscape.org/namespaces/inkscape"
   version="1.1"
   id="Слой_1"
   x="0px"
   y="0px"
   width="102.047px"
   height="102.047px"
   viewBox="0 0 102.047 102.047"
   style="enable-background:new 0 0 102.047 102.047;"
   xml:space="preserve"
   inkscape:version="0.48.4 r9939"
   sodipodi:docname="Логотип 1.5.1-01-02.svg"><metadata
     id="metadata24"><rdf:RDF><cc:Work
         rdf:about=""><dc:format>image/svg+xml</dc:format><dc:type
           rdf:resource="http://purl.org/dc/dcmitype/StillImage" /><dc:title></dc:title></cc:Work></rdf:RDF></metadata><defs
     id="defs22" /><sodipodi:namedview
     pagecolor="#ffffff"
     bordercolor="#666666"
     borderopacity="1"
     objecttolerance="10"
     gridtolerance="10"
     guidetolerance="10"
     inkscape:pageopacity="0"
     inkscape:pageshadow="2"
     inkscape:window-width="1366"
     inkscape:window-height="716"
     id="namedview20"
     showgrid="false"
     inkscape:zoom="2.3126599"
     inkscape:cx="51.023499"
     inkscape:cy="51.023499"
     inkscape:window-x="0"
     inkscape:window-y="0"
     inkscape:window-maximized="1"
     inkscape:current-layer="Логотип_1_" /><g
     id="Логотип_1_"><g
       id="Облако"><g
         id="Фон_1_"
         style="opacity:1"><path
           id="circle18"
           style="fill:#ffffff"
           d="m 92.827003,93.927002 c 0,0.789215 -0.639785,1.429 -1.429,1.429 -0.789215,0 -1.429,-0.639785 -1.429,-1.429 0,-0.789215 0.639785,-1.429 1.429,-1.429 0.789215,0 1.429,0.639785 1.429,1.429 z m -4.735007,-9.666 c 0,1.474048 -1.194952,2.668999 -2.668999,2.668999 -1.474048,0 -2.669,-1.194951 -2.669,-2.668999 0,-1.474048 1.194952,-2.669 2.669,-2.669 1.474047,0 2.668999,1.194952 2.668999,2.669 z m -6.917992,-9.599999 c 0,2.416246 -1.958755,4.375 -4.375,4.375 -2.416246,0 -4.375,-1.958754 -4.375,-4.375 0,-2.416246 1.958754,-4.375 4.375,-4.375 2.416245,0 4.375,1.958754 4.375,4.375 z M 98.66,39.358 c 0,1.742 -0.39,3.393 -1.083,4.875 -0.04,0.078 -0.08,0.159 -0.12,0.235 -0.552,0.974 -1.249,1.874 -2.034,2.691 l -0.646,0.586 c -0.113,0.097 -0.229,0.223 -0.338,0.296 l -0.327,0.239 -0.327,0.241 -0.16,0.124 -0.18,0.109 c -0.239,0.147 -0.478,0.294 -0.716,0.439 -0.988,0.518 -2.01,0.953 -3.054,1.198 -1.045,0.233 -2.086,0.392 -3.081,0.359 -0.5,0.027 -0.98,-0.053 -1.452,-0.082 -0.237,-0.013 -0.46,-0.074 -0.688,-0.109 -0.225,-0.042 -0.449,-0.073 -0.663,-0.122 -0.422,-0.12 -0.84,-0.212 -1.223,-0.344 -0.376,-0.145 -0.751,-0.258 -1.081,-0.409 -0.329,-0.157 -0.634,-0.309 -0.926,-0.441 -0.277,-0.155 -0.527,-0.308 -0.756,-0.441 -0.117,-0.069 -0.225,-0.132 -0.329,-0.193 -0.097,-0.065 -0.187,-0.132 -0.271,-0.191 -0.172,-0.12 -0.315,-0.223 -0.434,-0.308 -0.239,-0.166 -0.367,-0.254 -0.367,-0.254 0,0 0.101,0.117 0.29,0.336 0.096,0.111 0.214,0.246 0.355,0.405 0.071,0.078 0.143,0.168 0.227,0.256 0.092,0.082 0.187,0.168 0.288,0.26 0.206,0.181 0.428,0.39 0.682,0.606 0.267,0.201 0.565,0.403 0.881,0.628 0.321,0.216 0.691,0.401 1.07,0.621 0.187,0.118 0.401,0.189 0.611,0.285 0.212,0.09 0.43,0.183 0.651,0.277 0.225,0.088 0.464,0.149 0.703,0.225 0.243,0.069 0.485,0.164 0.743,0.21 0.39,0.075 0.791,0.17 1.205,0.225 -0.304,5.102 -4.464,9.052 -9.618,9.052 -1.641,0 -3.265,-0.422 -4.693,-1.221 l -0.98,-0.546 -0.415,1.043 c -1.324,3.326 -4.491,5.477 -8.069,5.477 -1.026,0 -2.031,-0.178 -2.986,-0.527 L 58.646,65.21 58.21,65.819 c -1.41,1.969 -3.694,3.144 -6.111,3.144 -1.452,0 -2.861,-0.416 -4.078,-1.205 l -0.518,-0.334 -0.527,0.317 c -1.014,0.613 -2.18,0.936 -3.372,0.936 -0.271,-0.04 -0.546,-0.096 -0.825,-0.166 -0.51,-0.118 -1.02,-0.327 -1.522,-0.567 -0.504,-0.243 -0.982,-0.563 -1.431,-0.93 -0.109,-0.092 -0.227,-0.178 -0.327,-0.285 L 39.342,66.576 39.214,66.458 38.88,66.082 38.716,65.895 38.599,65.727 38.356,65.402 38.131,65.026 C 38.051,64.904 37.986,64.774 37.923,64.642 37.86,64.512 37.789,64.384 37.732,64.252 37.52,63.715 37.327,63.173 37.235,62.621 37.168,62.348 37.166,62.071 37.12,61.8 37.118,61.531 37.086,61.261 37.103,61 c 0.011,-0.262 0.015,-0.52 0.055,-0.766 0.015,-0.124 0.031,-0.246 0.044,-0.367 0.025,-0.12 0.05,-0.237 0.075,-0.351 0.023,-0.115 0.046,-0.229 0.069,-0.34 0.032,-0.109 0.065,-0.214 0.097,-0.319 0.031,-0.105 0.059,-0.208 0.088,-0.308 0.032,-0.099 0.076,-0.189 0.109,-0.283 0.132,-0.372 0.287,-0.686 0.415,-0.949 0.13,-0.264 0.258,-0.458 0.334,-0.6 0.078,-0.143 0.12,-0.218 0.12,-0.218 0,0 -0.071,0.048 -0.202,0.141 -0.067,0.048 -0.147,0.105 -0.245,0.176 -0.096,0.069 -0.21,0.149 -0.315,0.258 -0.113,0.107 -0.235,0.225 -0.371,0.353 -0.141,0.126 -0.252,0.294 -0.395,0.46 -0.147,0.164 -0.273,0.359 -0.403,0.569 -0.065,0.105 -0.132,0.212 -0.201,0.323 -0.059,0.117 -0.118,0.237 -0.178,0.359 -0.059,0.122 -0.12,0.25 -0.178,0.38 -0.048,0.136 -0.097,0.273 -0.147,0.413 -0.111,0.277 -0.17,0.579 -0.243,0.89 -0.042,0.155 -0.061,0.315 -0.08,0.479 -0.019,0.162 -0.038,0.329 -0.057,0.495 -0.004,0.076 -0.006,0.153 -0.008,0.231 -0.615,-0.113 -1.202,-0.317 -1.748,-0.611 l -0.913,-0.493 -0.443,0.938 c -1.528,3.219 -4.814,5.299 -8.374,5.299 -4.567,0 -8.506,-3.402 -9.163,-7.914 L 14.774,58.769 14.356,58.532 C 13.195,57.871 12.26,56.914 11.624,55.787 11.567,55.651 11.509,55.516 11.448,55.374 11.337,54.977 11.171,54.587 11.098,54.153 11.06,53.937 10.981,53.731 10.97,53.505 10.943,53.283 10.917,53.062 10.88,52.838 10.87,52.613 10.874,52.383 10.859,52.156 l -0.01,-0.17 -0.002,-0.044 v -0.011 l 0.004,-0.097 0.019,-0.39 c 0.021,-0.237 0.031,-0.422 0.067,-0.653 0.019,-0.113 0.036,-0.225 0.05,-0.338 0.019,-0.111 0.046,-0.222 0.067,-0.332 0.04,-0.222 0.113,-0.434 0.16,-0.653 0.075,-0.208 0.128,-0.424 0.21,-0.627 0.141,-0.413 0.329,-0.795 0.51,-1.161 0.193,-0.361 0.392,-0.701 0.598,-1.005 0.204,-0.306 0.411,-0.579 0.604,-0.819 0.097,-0.12 0.193,-0.227 0.275,-0.338 0.092,-0.101 0.176,-0.195 0.252,-0.279 0.151,-0.172 0.281,-0.298 0.367,-0.39 0.088,-0.094 0.134,-0.143 0.134,-0.143 0,0 -0.065,0.015 -0.189,0.044 -0.118,0.04 -0.311,0.069 -0.529,0.162 -0.111,0.044 -0.235,0.094 -0.371,0.145 -0.132,0.059 -0.269,0.134 -0.42,0.208 -0.296,0.16 -0.621,0.367 -0.951,0.627 -0.17,0.124 -0.325,0.279 -0.499,0.43 -0.164,0.159 -0.325,0.332 -0.489,0.514 -0.309,0.376 -0.625,0.793 -0.877,1.272 -0.26,0.472 -0.483,0.989 -0.634,1.54 -0.029,0.094 -0.052,0.189 -0.076,0.283 -3.375,-0.982 -5.748,-4.082 -5.748,-7.671 0,-4.18 3.265,-7.683 7.431,-7.973 l 1.446,-0.099 -0.627,-1.307 c -0.627,-1.308 -0.946,-2.712 -0.946,-4.176 0,-5.331 4.338,-9.668 9.669,-9.668 2.439,0 4.772,0.913 6.563,2.571 l 0.797,0.737 0.655,-0.865 c 1.171,-1.543 2.949,-2.434 4.894,-2.443 0.038,0.117 0.075,0.235 0.111,0.348 0.032,0.097 0.065,0.193 0.096,0.287 0.036,0.092 0.078,0.181 0.117,0.271 0.08,0.178 0.157,0.35 0.233,0.518 0.159,0.332 0.353,0.625 0.512,0.907 0.359,0.542 0.711,0.984 1.041,1.316 0.302,0.353 0.594,0.552 0.776,0.714 0.166,0.134 0.262,0.214 0.285,0.231 C 36.421,23.608 36.352,23.503 36.233,23.321 36.101,23.12 35.882,22.83 35.679,22.44 35.45,22.069 35.236,21.577 34.999,21.025 34.907,20.737 34.785,20.442 34.701,20.118 34.636,19.789 34.512,19.463 34.476,19.098 34.474,19.085 34.47,19.069 34.468,19.056 l 0.027,0.002 -0.149,-1.133 c -0.004,-0.034 -0.006,-0.067 -0.01,-0.101 -0.021,-0.336 0.004,-0.684 0.002,-1.035 0.067,-0.814 0.216,-1.656 0.487,-2.487 0.292,-0.825 0.695,-1.631 1.207,-2.384 0.138,-0.18 0.277,-0.361 0.415,-0.542 0.138,-0.183 0.309,-0.338 0.458,-0.512 l 0.117,-0.126 0.059,-0.065 0.027,-0.032 0.011,-0.011 0.271,-0.241 0.287,-0.256 0.143,-0.128 C 37.866,9.967 37.908,9.94 37.954,9.908 l 0.523,-0.386 0.586,-0.355 c 0.191,-0.13 0.409,-0.208 0.609,-0.313 L 39.98,8.703 c 0.105,-0.044 0.214,-0.08 0.319,-0.12 0.394,-0.162 0.8,-0.269 1.203,-0.38 0.479,-0.082 0.97,-0.128 1.473,-0.128 3.079,0 5.96,1.656 7.519,4.319 l 0.508,0.867 0.856,-0.525 c 0.978,-0.6 2.103,-0.917 3.255,-0.917 1.459,0 2.877,0.516 3.996,1.45 l 0.865,0.726 0.6,-0.957 c 1.15,-1.838 3.127,-2.934 5.289,-2.934 2.716,0 5.1,1.752 5.929,4.306 -0.367,0.193 -0.716,0.401 -1.045,0.619 -0.722,0.479 -1.316,1.041 -1.83,1.576 -0.497,0.558 -0.905,1.098 -1.205,1.616 -0.16,0.252 -0.296,0.495 -0.401,0.73 -0.057,0.115 -0.111,0.224 -0.162,0.33 -0.044,0.109 -0.086,0.212 -0.128,0.311 -0.17,0.392 -0.252,0.707 -0.313,0.921 -0.059,0.216 -0.092,0.33 -0.092,0.33 0,0 0.067,-0.097 0.195,-0.283 0.059,-0.094 0.136,-0.208 0.225,-0.342 0.094,-0.132 0.208,-0.275 0.327,-0.439 0.061,-0.08 0.124,-0.164 0.191,-0.254 0.074,-0.084 0.151,-0.174 0.231,-0.266 0.08,-0.092 0.162,-0.187 0.245,-0.288 0.088,-0.097 0.183,-0.195 0.279,-0.296 0.097,-0.099 0.193,-0.204 0.3,-0.308 0.109,-0.099 0.222,-0.201 0.336,-0.306 0.222,-0.214 0.485,-0.409 0.743,-0.621 0.543,-0.397 1.137,-0.81 1.817,-1.144 0.678,-0.338 1.414,-0.632 2.199,-0.846 0.787,-0.201 1.616,-0.325 2.462,-0.359 l 0.319,-0.006 0.159,-0.002 0.075,-0.002 0.042,0.002 c 0.233,0.015 0.466,0.031 0.701,0.046 l 0.351,0.019 0.3,0.052 0.604,0.097 c 0.829,0.191 1.662,0.424 2.42,0.8 0.394,0.159 0.745,0.39 1.114,0.586 0.183,0.096 0.342,0.231 0.516,0.344 0.164,0.124 0.348,0.222 0.499,0.357 0.309,0.264 0.636,0.5 0.905,0.787 0.141,0.138 0.283,0.275 0.42,0.409 0.126,0.147 0.25,0.292 0.372,0.436 0.067,0.08 0.139,0.159 0.208,0.237 1.049,1.582 1.662,3.475 1.662,5.511 0,0.63 -0.061,1.268 -0.181,1.899 l -0.216,1.125 1.144,0.044 c 6.215,0.244 11.08,5.308 11.08,11.526 z m -7.539,51.879 c -1.301,0 -2.353,1.053 -2.353,2.351 0,1.301 1.053,2.353 2.353,2.353 1.299,0 2.353,-1.053 2.353,-2.353 0,-1.298 -1.054,-2.351 -2.353,-2.351 z m 0.277,4.119 c -0.789,0 -1.429,-0.64 -1.429,-1.429 0,-0.789 0.64,-1.429 1.429,-1.429 0.789,0 1.429,0.64 1.429,1.429 0,0.789 -0.64,1.429 -1.429,1.429 z M 86.24,79.923 c -2.395,0 -4.338,1.941 -4.338,4.338 0,2.395 1.943,4.338 4.338,4.338 2.397,0 4.34,-1.943 4.34,-4.338 0,-2.397 -1.942,-4.338 -4.34,-4.338 z m -0.817,7.007 c -1.475,0 -2.669,-1.194 -2.669,-2.669 0,-1.475 1.194,-2.67 2.669,-2.67 1.475,0 2.669,1.196 2.669,2.67 -0.001,1.475 -1.195,2.669 -2.669,2.669 z M 76.084,67.706 c -3.352,0 -6.071,2.718 -6.071,6.071 0,3.353 2.718,6.071 6.071,6.071 3.352,0 6.071,-2.718 6.071,-6.071 0,-3.353 -2.719,-6.071 -6.071,-6.071 z m 0.714,11.331 c -2.416,0 -4.374,-1.96 -4.374,-4.376 0,-2.415 1.958,-4.374 4.374,-4.374 2.418,0 4.376,1.96 4.376,4.374 0,2.416 -1.958,4.376 -4.376,4.376 z m 11.95,-53.089 c 0.038,-0.395 0.059,-0.793 0.059,-1.186 0,-6.596 -5.366,-11.962 -11.962,-11.962 -1.144,0 -2.271,0.162 -3.36,0.481 -1.23,-3.077 -4.227,-5.15 -7.616,-5.15 -2.491,0 -4.795,1.106 -6.344,3.001 -1.31,-0.833 -2.84,-1.284 -4.407,-1.284 -1.192,0 -2.363,0.258 -3.435,0.753 -1.99,-2.797 -5.244,-4.497 -8.703,-4.497 -5.887,0 -10.676,4.789 -10.676,10.676 0,0.113 0.002,0.229 0.006,0.344 -1.841,0.22 -3.53,1.053 -4.825,2.38 -2.034,-1.578 -4.529,-2.437 -7.125,-2.437 -6.416,0 -11.637,5.221 -11.637,11.637 0,1.312 0.212,2.585 0.634,3.801 -4.546,0.942 -7.941,4.995 -7.941,9.754 0,4.525 3.026,8.43 7.314,9.605 -0.006,0.126 -0.008,0.25 -0.008,0.374 0,3.144 1.618,6.074 4.256,7.759 0.993,5.238 5.656,9.131 11.033,9.131 3.99,0 7.698,-2.155 9.698,-5.564 0.512,0.197 1.045,0.34 1.595,0.428 0.854,3.845 4.292,6.655 8.3,6.655 1.349,0 2.67,-0.319 3.862,-0.926 1.414,0.795 3.003,1.213 4.634,1.213 2.804,0 5.469,-1.255 7.263,-3.391 0.963,0.279 1.96,0.42 2.972,0.42 4.032,0 7.637,-2.223 9.456,-5.746 1.475,0.653 3.081,0.995 4.701,0.995 6.029,0 10.932,-4.487 11.543,-10.376 7.022,-0.474 12.592,-6.338 12.592,-13.478 0.003,-6.913 -5.136,-12.607 -11.879,-13.41 z m 8.709,18.52 c -0.552,0.974 -1.249,1.874 -2.034,2.691 l -0.646,0.586 c -0.113,0.097 -0.229,0.223 -0.338,0.296 l -0.327,0.239 -0.327,0.241 -0.16,0.124 -0.18,0.109 c -0.239,0.147 -0.478,0.294 -0.716,0.439 -0.988,0.518 -2.01,0.953 -3.054,1.198 -1.045,0.233 -2.086,0.392 -3.081,0.359 -0.5,0.027 -0.98,-0.053 -1.452,-0.082 -0.237,-0.013 -0.46,-0.074 -0.688,-0.109 -0.225,-0.042 -0.449,-0.073 -0.663,-0.122 -0.422,-0.12 -0.84,-0.212 -1.223,-0.344 -0.376,-0.145 -0.751,-0.258 -1.081,-0.409 -0.329,-0.157 -0.634,-0.309 -0.926,-0.441 -0.277,-0.155 -0.527,-0.308 -0.756,-0.441 -0.117,-0.069 -0.225,-0.132 -0.329,-0.193 -0.097,-0.065 -0.187,-0.132 -0.271,-0.191 -0.172,-0.12 -0.315,-0.223 -0.434,-0.308 -0.239,-0.166 -0.367,-0.254 -0.367,-0.254 0,0 0.101,0.117 0.29,0.336 0.096,0.111 0.214,0.246 0.355,0.405 0.071,0.078 0.143,0.168 0.227,0.256 0.092,0.082 0.187,0.168 0.288,0.26 0.206,0.181 0.428,0.39 0.682,0.606 0.267,0.201 0.565,0.403 0.881,0.628 0.321,0.216 0.691,0.401 1.07,0.621 0.187,0.118 0.401,0.189 0.611,0.285 0.212,0.09 0.43,0.183 0.651,0.277 0.225,0.088 0.464,0.149 0.703,0.225 0.243,0.069 0.485,0.164 0.743,0.21 0.39,0.075 0.791,0.17 1.205,0.225 -0.304,5.102 -4.464,9.052 -9.618,9.052 -1.641,0 -3.265,-0.422 -4.693,-1.221 l -0.98,-0.546 -0.415,1.043 c -1.324,3.326 -4.491,5.477 -8.069,5.477 -1.026,0 -2.031,-0.178 -2.986,-0.527 L 58.646,65.21 58.21,65.819 c -1.41,1.969 -3.694,3.144 -6.111,3.144 -1.452,0 -2.861,-0.416 -4.078,-1.205 l -0.518,-0.334 -0.527,0.317 c -1.014,0.613 -2.18,0.936 -3.372,0.936 -0.271,-0.04 -0.546,-0.096 -0.825,-0.166 -0.51,-0.118 -1.02,-0.327 -1.522,-0.567 -0.504,-0.243 -0.982,-0.563 -1.431,-0.93 -0.109,-0.092 -0.227,-0.178 -0.327,-0.285 L 39.342,66.576 39.214,66.458 38.88,66.082 38.716,65.895 38.599,65.727 38.356,65.402 38.131,65.026 C 38.051,64.904 37.986,64.774 37.923,64.642 37.86,64.512 37.789,64.384 37.732,64.252 37.52,63.715 37.327,63.173 37.235,62.621 37.168,62.348 37.166,62.071 37.12,61.8 37.118,61.531 37.086,61.261 37.103,61 c 0.011,-0.262 0.015,-0.52 0.055,-0.766 0.015,-0.124 0.031,-0.246 0.044,-0.367 0.025,-0.12 0.05,-0.237 0.075,-0.351 0.023,-0.115 0.046,-0.229 0.069,-0.34 0.032,-0.109 0.065,-0.214 0.097,-0.319 0.031,-0.105 0.059,-0.208 0.088,-0.308 0.032,-0.099 0.076,-0.189 0.109,-0.283 0.132,-0.372 0.287,-0.686 0.415,-0.949 0.13,-0.264 0.258,-0.458 0.334,-0.6 0.078,-0.143 0.12,-0.218 0.12,-0.218 0,0 -0.071,0.048 -0.202,0.141 -0.067,0.048 -0.147,0.105 -0.245,0.176 -0.096,0.069 -0.21,0.149 -0.315,0.258 -0.113,0.107 -0.235,0.225 -0.371,0.353 -0.141,0.126 -0.252,0.294 -0.395,0.46 -0.147,0.164 -0.273,0.359 -0.403,0.569 -0.065,0.105 -0.132,0.212 -0.201,0.323 -0.059,0.117 -0.118,0.237 -0.178,0.359 -0.059,0.122 -0.12,0.25 -0.178,0.38 -0.048,0.136 -0.097,0.273 -0.147,0.413 -0.111,0.277 -0.17,0.579 -0.243,0.89 -0.042,0.155 -0.061,0.315 -0.08,0.479 -0.019,0.162 -0.038,0.329 -0.057,0.495 -0.004,0.076 -0.006,0.153 -0.008,0.231 -0.615,-0.113 -1.202,-0.317 -1.748,-0.611 l -0.913,-0.493 -0.443,0.938 c -1.528,3.219 -4.814,5.299 -8.374,5.299 -4.567,0 -8.506,-3.402 -9.163,-7.914 L 14.774,58.769 14.356,58.532 C 13.195,57.871 12.26,56.914 11.624,55.787 11.567,55.651 11.509,55.516 11.448,55.374 11.337,54.977 11.171,54.587 11.098,54.153 11.06,53.937 10.981,53.731 10.97,53.505 10.943,53.283 10.917,53.062 10.88,52.838 10.87,52.613 10.874,52.383 10.859,52.156 l -0.01,-0.17 -0.002,-0.044 v -0.011 l 0.004,-0.097 0.019,-0.39 c 0.021,-0.237 0.031,-0.422 0.067,-0.653 0.019,-0.113 0.036,-0.225 0.05,-0.338 0.019,-0.111 0.046,-0.222 0.067,-0.332 0.04,-0.222 0.113,-0.434 0.16,-0.653 0.075,-0.208 0.128,-0.424 0.21,-0.627 0.141,-0.413 0.329,-0.795 0.51,-1.161 0.193,-0.361 0.392,-0.701 0.598,-1.005 0.204,-0.306 0.411,-0.579 0.604,-0.819 0.097,-0.12 0.193,-0.227 0.275,-0.338 0.092,-0.101 0.176,-0.195 0.252,-0.279 0.151,-0.172 0.281,-0.298 0.367,-0.39 0.088,-0.094 0.134,-0.143 0.134,-0.143 0,0 -0.065,0.015 -0.189,0.044 -0.118,0.04 -0.311,0.069 -0.529,0.162 -0.111,0.044 -0.235,0.094 -0.371,0.145 -0.132,0.059 -0.269,0.134 -0.42,0.208 -0.296,0.16 -0.621,0.367 -0.951,0.627 -0.17,0.124 -0.325,0.279 -0.499,0.43 -0.164,0.159 -0.325,0.332 -0.489,0.514 -0.309,0.376 -0.625,0.793 -0.877,1.272 -0.26,0.472 -0.483,0.989 -0.634,1.54 -0.029,0.094 -0.052,0.189 -0.076,0.283 -3.375,-0.982 -5.748,-4.082 -5.748,-7.671 0,-4.18 3.265,-7.683 7.431,-7.973 l 1.446,-0.099 -0.627,-1.307 c -0.627,-1.308 -0.946,-2.712 -0.946,-4.176 0,-5.331 4.338,-9.668 9.669,-9.668 2.439,0 4.772,0.913 6.563,2.571 l 0.797,0.737 0.655,-0.865 c 1.171,-1.543 2.949,-2.434 4.894,-2.443 0.038,0.117 0.075,0.235 0.111,0.348 0.032,0.097 0.065,0.193 0.096,0.287 0.036,0.092 0.078,0.181 0.117,0.271 0.08,0.178 0.157,0.35 0.233,0.518 0.159,0.332 0.353,0.625 0.512,0.907 0.359,0.542 0.711,0.984 1.041,1.316 0.302,0.353 0.594,0.552 0.776,0.714 0.166,0.134 0.262,0.214 0.285,0.231 C 36.421,23.608 36.352,23.503 36.233,23.321 36.101,23.12 35.882,22.83 35.679,22.44 35.45,22.069 35.236,21.577 34.999,21.025 34.907,20.737 34.785,20.442 34.701,20.118 34.636,19.789 34.512,19.463 34.476,19.098 34.474,19.085 34.47,19.069 34.468,19.056 l 0.027,0.002 -0.149,-1.133 c -0.004,-0.034 -0.006,-0.067 -0.01,-0.101 -0.021,-0.336 0.004,-0.684 0.002,-1.035 0.067,-0.814 0.216,-1.656 0.487,-2.487 0.292,-0.825 0.695,-1.631 1.207,-2.384 0.138,-0.18 0.277,-0.361 0.415,-0.542 0.138,-0.183 0.309,-0.338 0.458,-0.512 l 0.117,-0.126 0.059,-0.065 0.027,-0.032 0.011,-0.011 0.271,-0.241 0.287,-0.256 0.143,-0.128 C 37.866,9.967 37.908,9.94 37.954,9.908 l 0.523,-0.386 0.586,-0.355 c 0.191,-0.13 0.409,-0.208 0.609,-0.313 L 39.98,8.703 c 0.105,-0.044 0.214,-0.08 0.319,-0.12 0.394,-0.162 0.8,-0.269 1.203,-0.38 0.479,-0.082 0.97,-0.128 1.473,-0.128 3.079,0 5.96,1.656 7.519,4.319 l 0.508,0.867 0.856,-0.525 c 0.978,-0.6 2.103,-0.917 3.255,-0.917 1.459,0 2.877,0.516 3.996,1.45 l 0.865,0.726 0.6,-0.957 c 1.15,-1.838 3.127,-2.934 5.289,-2.934 2.716,0 5.1,1.752 5.929,4.306 -0.367,0.193 -0.716,0.401 -1.045,0.619 -0.722,0.479 -1.316,1.041 -1.83,1.576 -0.497,0.558 -0.905,1.098 -1.205,1.616 -0.16,0.252 -0.296,0.495 -0.401,0.73 -0.057,0.115 -0.111,0.224 -0.162,0.33 -0.044,0.109 -0.086,0.212 -0.128,0.311 -0.17,0.392 -0.252,0.707 -0.313,0.921 -0.059,0.216 -0.092,0.33 -0.092,0.33 0,0 0.067,-0.097 0.195,-0.283 0.059,-0.094 0.136,-0.208 0.225,-0.342 0.094,-0.132 0.208,-0.275 0.327,-0.439 0.061,-0.08 0.124,-0.164 0.191,-0.254 0.074,-0.084 0.151,-0.174 0.231,-0.266 0.08,-0.092 0.162,-0.187 0.245,-0.288 0.088,-0.097 0.183,-0.195 0.279,-0.296 0.097,-0.099 0.193,-0.204 0.3,-0.308 0.109,-0.099 0.222,-0.201 0.336,-0.306 0.222,-0.214 0.485,-0.409 0.743,-0.621 0.543,-0.397 1.137,-0.81 1.817,-1.144 0.678,-0.338 1.414,-0.632 2.199,-0.846 0.787,-0.201 1.616,-0.325 2.462,-0.359 l 0.319,-0.006 0.159,-0.002 0.075,-0.002 0.042,0.002 c 0.233,0.015 0.466,0.031 0.701,0.046 l 0.351,0.019 0.3,0.052 0.604,0.097 c 0.829,0.191 1.662,0.424 2.42,0.8 0.394,0.159 0.745,0.39 1.114,0.586 0.183,0.096 0.342,0.231 0.516,0.344 0.164,0.124 0.348,0.222 0.499,0.357 0.309,0.264 0.636,0.5 0.905,0.787 0.141,0.138 0.283,0.275 0.42,0.409 0.126,0.147 0.25,0.292 0.372,0.436 0.067,0.08 0.139,0.159 0.208,0.237 1.049,1.582 1.662,3.475 1.662,5.511 0,0.63 -0.061,1.268 -0.181,1.899 l -0.216,1.125 1.144,0.044 c 6.21,0.246 11.075,5.31 11.075,11.528 0,1.742 -0.39,3.393 -1.083,4.875 -0.035,0.076 -0.075,0.156 -0.115,0.233 z" /></g></g></g></svg>